<mxfile host="app.diagrams.net" agent="Mozilla/5.0 (Windows NT 10.0; Win64; x64) AppleWebKit/537.36 (KHTML, like Gecko) Chrome/127.0.0.0 Safari/537.36 Edg/127.0.0.0" version="24.7.6">
  <diagram name="Page-1" id="sjH4EskXo_MiwgxItWJ7">
    <mxGraphModel dx="1642" dy="967" grid="0" gridSize="10" guides="1" tooltips="1" connect="1" arrows="1" fold="1" page="0" pageScale="1" pageWidth="850" pageHeight="1100" math="0" shadow="0">
      <root>
        <mxCell id="0" />
        <mxCell id="1" parent="0" />
        <mxCell id="z0Tgp3Gk6giFcsn7vyYa-1" value="User&lt;div&gt;&lt;br&gt;&lt;/div&gt;" style="shape=umlActor;verticalLabelPosition=bottom;verticalAlign=top;html=1;outlineConnect=0;" parent="1" vertex="1">
          <mxGeometry x="-317" y="89" width="97" height="269" as="geometry" />
        </mxCell>
        <mxCell id="z0Tgp3Gk6giFcsn7vyYa-12" value="Create An Account" style="ellipse;whiteSpace=wrap;html=1;" parent="1" vertex="1">
          <mxGeometry x="10" y="-108" width="120" height="80" as="geometry" />
        </mxCell>
        <mxCell id="z0Tgp3Gk6giFcsn7vyYa-13" value="Deposit Money" style="ellipse;whiteSpace=wrap;html=1;" parent="1" vertex="1">
          <mxGeometry x="17" y="-26" width="120" height="80" as="geometry" />
        </mxCell>
        <mxCell id="z0Tgp3Gk6giFcsn7vyYa-14" value="Withdraw Money" style="ellipse;whiteSpace=wrap;html=1;" parent="1" vertex="1">
          <mxGeometry x="21" y="69" width="120" height="80" as="geometry" />
        </mxCell>
        <mxCell id="z0Tgp3Gk6giFcsn7vyYa-15" value="Check Balance" style="ellipse;whiteSpace=wrap;html=1;" parent="1" vertex="1">
          <mxGeometry x="21" y="160" width="120" height="80" as="geometry" />
        </mxCell>
        <mxCell id="z0Tgp3Gk6giFcsn7vyYa-16" value="Transfer Money" style="ellipse;whiteSpace=wrap;html=1;" parent="1" vertex="1">
          <mxGeometry x="23" y="245" width="120" height="80" as="geometry" />
        </mxCell>
        <mxCell id="z0Tgp3Gk6giFcsn7vyYa-17" value="Change PIN" style="ellipse;whiteSpace=wrap;html=1;" parent="1" vertex="1">
          <mxGeometry x="21" y="330" width="120" height="80" as="geometry" />
        </mxCell>
        <mxCell id="z0Tgp3Gk6giFcsn7vyYa-18" value="Close Account&lt;div&gt;&lt;br&gt;&lt;/div&gt;" style="ellipse;whiteSpace=wrap;html=1;" parent="1" vertex="1">
          <mxGeometry x="23" y="421" width="120" height="80" as="geometry" />
        </mxCell>
        <mxCell id="z0Tgp3Gk6giFcsn7vyYa-19" value="" style="endArrow=none;html=1;rounded=0;fontSize=12;startSize=8;endSize=8;curved=1;" parent="1" edge="1">
          <mxGeometry width="50" height="50" relative="1" as="geometry">
            <mxPoint x="16" y="184" as="sourcePoint" />
            <mxPoint x="-220" y="181" as="targetPoint" />
          </mxGeometry>
        </mxCell>
        <mxCell id="z0Tgp3Gk6giFcsn7vyYa-20" value="" style="endArrow=none;html=1;rounded=0;fontSize=12;startSize=8;endSize=8;curved=1;entryX=0.75;entryY=0.1;entryDx=0;entryDy=0;entryPerimeter=0;" parent="1" edge="1">
          <mxGeometry width="50" height="50" relative="1" as="geometry">
            <mxPoint x="8" y="-68" as="sourcePoint" />
            <mxPoint x="-244.25" y="117.90000000000009" as="targetPoint" />
            <Array as="points" />
          </mxGeometry>
        </mxCell>
        <mxCell id="z0Tgp3Gk6giFcsn7vyYa-21" value="" style="endArrow=none;html=1;rounded=0;fontSize=12;startSize=8;endSize=8;curved=1;entryX=0.75;entryY=0.1;entryDx=0;entryDy=0;entryPerimeter=0;" parent="1" source="z0Tgp3Gk6giFcsn7vyYa-13" target="z0Tgp3Gk6giFcsn7vyYa-1" edge="1">
          <mxGeometry width="50" height="50" relative="1" as="geometry">
            <mxPoint x="18" y="-58" as="sourcePoint" />
            <mxPoint x="-234.25" y="127.90000000000009" as="targetPoint" />
            <Array as="points" />
          </mxGeometry>
        </mxCell>
        <mxCell id="z0Tgp3Gk6giFcsn7vyYa-23" value="" style="endArrow=none;html=1;rounded=0;fontSize=12;startSize=8;endSize=8;curved=1;exitX=0;exitY=0.5;exitDx=0;exitDy=0;" parent="1" source="z0Tgp3Gk6giFcsn7vyYa-14" edge="1">
          <mxGeometry width="50" height="50" relative="1" as="geometry">
            <mxPoint x="33" y="41" as="sourcePoint" />
            <mxPoint x="-220" y="178" as="targetPoint" />
            <Array as="points" />
          </mxGeometry>
        </mxCell>
        <mxCell id="z0Tgp3Gk6giFcsn7vyYa-26" value="" style="endArrow=none;html=1;rounded=0;fontSize=12;startSize=8;endSize=8;curved=1;" parent="1" edge="1">
          <mxGeometry width="50" height="50" relative="1" as="geometry">
            <mxPoint x="21" y="280" as="sourcePoint" />
            <mxPoint x="-216" y="179" as="targetPoint" />
          </mxGeometry>
        </mxCell>
        <mxCell id="z0Tgp3Gk6giFcsn7vyYa-27" value="" style="endArrow=none;html=1;rounded=0;fontSize=12;startSize=8;endSize=8;curved=1;entryX=1;entryY=1;entryDx=0;entryDy=0;entryPerimeter=0;" parent="1" target="z0Tgp3Gk6giFcsn7vyYa-1" edge="1">
          <mxGeometry width="50" height="50" relative="1" as="geometry">
            <mxPoint x="16" y="365" as="sourcePoint" />
            <mxPoint x="-231" y="257" as="targetPoint" />
          </mxGeometry>
        </mxCell>
        <mxCell id="z0Tgp3Gk6giFcsn7vyYa-28" value="" style="endArrow=none;html=1;rounded=0;fontSize=12;startSize=8;endSize=8;curved=1;entryX=1;entryY=1;entryDx=0;entryDy=0;entryPerimeter=0;" parent="1" target="z0Tgp3Gk6giFcsn7vyYa-1" edge="1">
          <mxGeometry width="50" height="50" relative="1" as="geometry">
            <mxPoint x="17" y="450" as="sourcePoint" />
            <mxPoint x="-214" y="368" as="targetPoint" />
          </mxGeometry>
        </mxCell>
      </root>
    </mxGraphModel>
  </diagram>
</mxfile>
